<svg xmlns="http://www.w3.org/2000/svg" width="172" height="62" viewBox="0 0 172 44">
  <g fill="none" fill-rule="nonzero">
    <path fill="#FFFFFF" d="M109.648.756h2.94V26.32c-.058 2.35.254 4.695.924 6.948a12.34 12.34 0 0 0 2.463 4.461 8.578 8.578 0 0 0 3.546 2.397c1.367.47 2.805.706 4.25.696 1.487.01 2.964-.226 4.373-.696a8.745 8.745 0 0 0 3.644-2.397c1.14-1.297 2-2.816 2.524-4.46a21.702 21.702 0 0 0 .954-6.98V.757h2.75v25.881a23.665 23.665 0 0 1-1.212 8.143 14.119 14.119 0 0 1-3.197 5.202 11.128 11.128 0 0 1-4.546 2.738 17.766 17.766 0 0 1-10.548 0 11.105 11.105 0 0 1-4.546-2.738 13.687 13.687 0 0 1-3.137-5.202 24.102 24.102 0 0 1-1.182-8.158V.756zM142.684.756h2.94V24.09h.121L166.128.756h3.516l-13.42 15.553 15.268 26.463h-3.387L154.18 18.577l-8.555 9.754v14.434h-2.94z"/>
    <path fill="#FFFFFF" d="M0 .756h9.494V16.93H24.02V.756h9.555v42.009H24.02V25.239H9.494v17.526H0z"/>
    <path fill="#FFFFFF" d="M37.885.756H49.79c2.953-.04 5.894.374 8.721 1.225a17.482 17.482 0 0 1 6.653 3.765 16.548 16.548 0 0 1 4.266 6.48 26.412 26.412 0 0 1 1.515 9.345 26.91 26.91 0 0 1-1.515 9.406A16.766 16.766 0 0 1 58.73 41.48a25.896 25.896 0 0 1-8.426 1.285H37.885V.756zm11.32 34.342a15.807 15.807 0 0 0 4.91-.71 9.013 9.013 0 0 0 3.744-2.269 10.663 10.663 0 0 0 2.424-4.159 20.02 20.02 0 0 0 .872-6.373c.054-2.128-.24-4.25-.872-6.284a10.09 10.09 0 0 0-2.424-4.06 8.786 8.786 0 0 0-3.743-2.17 17.63 17.63 0 0 0-4.91-.643h-1.804v26.668h1.804z"/>
    <path fill="#FFFFFF" d="M96.987 42.765l-8.07-15.122H83.69v15.122h-9.494V.755h15.154a29.83 29.83 0 0 1 6.297.644 14.314 14.314 0 0 1 5.13 2.162 10.728 10.728 0 0 1 3.508 4 13.585 13.585 0 0 1 1.295 6.253 13.316 13.316 0 0 1-2.038 7.636 12.383 12.383 0 0 1-5.456 4.477l9.563 16.815-10.661.023zM83.689 20.082h4.91c2.49 0 4.395-.527 5.713-1.58a5.635 5.635 0 0 0 1.97-4.673c0-2.067-.657-3.506-1.97-4.317C93 8.7 91.094 8.302 88.6 8.317h-4.91v11.765z"/>
  </g>
</svg>
